<svg width="35" height="35" viewBox="0 0 35 35" fill="none" xmlns="http://www.w3.org/2000/svg">
<g clip-path="url(#clip0)">
<path d="M34.9917 32.5176L32.242 17.3684C32.2146 17.2172 32.1208 17.0862 31.9864 17.0115L25.0656 13.1621C24.9757 13.1121 24.875 13.0922 24.7761 13.0999L26.0352 29.3426L25.9931 29.3615L34.2758 33.0773C34.3432 33.1075 34.4148 33.1224 34.4861 33.1224C34.599 33.1224 34.7108 33.0853 34.8027 33.0133C34.953 32.896 35.0257 32.7051 34.9917 32.5176Z" fill="#44C868"/>
<path d="M17.5 16.8421L10.4217 13.1554C10.3368 13.1111 10.2428 13.0931 10.1501 13.0993C10.1747 13.0978 10.1994 13.098 10.2238 13.0999L8.96472 29.3426L17.2896 33.0774C17.3568 33.1075 17.4285 33.1224 17.5 33.1224V16.8421Z" fill="#44C868"/>
<path d="M10.2238 13.0999C10.1249 13.0923 10.0242 13.1122 9.93441 13.1621L3.01348 17.0115C2.87909 17.0862 2.7853 17.2171 2.75789 17.3684L0.00826313 32.5176C-0.0257799 32.705 0.0469546 32.8959 0.19714 33.0133C0.289221 33.0853 0.400988 33.1224 0.513782 33.1224C0.585081 33.1224 0.65679 33.1076 0.724124 33.0774L8.96172 29.3818L10.2238 13.0999Z" fill="#4CE166"/>
<path d="M24.7761 13.0996C24.708 13.1049 24.6407 13.123 24.5783 13.1555L17.5 16.8421V33.1225C17.5 33.1225 17.5 33.1225 17.5001 33.1225C17.5715 33.1225 17.6433 33.1076 17.7104 33.0774L26.0353 29.3427L24.7761 13.0996Z" fill="#4CE166"/>
<path d="M1.92465 21.9593L1.36609 25.0368L9.63718 20.6682L9.8292 18.1909L9.86106 17.7801L1.92465 21.9593Z" fill="#FFDB56"/>
<path d="M9.71155 19.7076L9.63711 20.6682L1.36602 25.0368L0.00826313 32.5176C-0.0257799 32.705 0.0469546 32.8959 0.19714 33.0133C0.289221 33.0853 0.400988 33.1224 0.513782 33.1224C0.585081 33.1224 0.65679 33.1076 0.724124 33.0774L8.96172 29.3818L9.71155 19.7076Z" fill="#A8EEFC"/>
<path d="M17.5021 18.8727L9.86096 17.7801L9.63708 20.6682L17.5 32.6092V28.2671L12.808 20.879L17.5021 21.4404V18.8727Z" fill="#FFBB24"/>
<path d="M31.4417 16.7085L28.117 14.8593L24.9696 15.5947L25.009 16.103L25.1644 18.1083L31.4417 16.7085Z" fill="#FFBB24"/>
<path d="M25.4435 21.7093L25.1455 17.8642L24.9696 15.5947L17.5021 18.8727V21.4404L22.3799 19.3192L25.4435 21.7093Z" fill="#FFDB56"/>
<path d="M34.9918 32.5176L34.3012 28.7123L25.1644 18.1083L25.4436 21.7093L34.8136 33.0038C34.9561 32.8857 35.0249 32.7003 34.9918 32.5176Z" fill="#FFBB24"/>
<path d="M17.533 1.8775C13.5707 1.8775 10.347 5.09847 10.347 9.05757C10.347 11.5066 11.5098 14.136 13.803 16.8726C15.4873 18.8825 17.1487 20.1753 17.2187 20.2294C17.3112 20.3009 17.4221 20.3367 17.5331 20.3367C17.6439 20.3367 17.7549 20.3009 17.8475 20.2294C17.9173 20.1753 19.5788 18.8825 21.2631 16.8726C23.5564 14.136 24.7191 11.5067 24.7191 9.05757C24.7189 5.09847 21.4953 1.8775 17.533 1.8775ZM20.1942 9.05751C20.1942 10.526 19.0027 11.7166 17.533 11.7166C16.0633 11.7166 14.8718 10.5261 14.8718 9.05751C14.8718 7.58894 16.0633 6.39846 17.533 6.39846C19.0027 6.39846 20.1942 7.58901 20.1942 9.05751Z" fill="#FF4A4A"/>
<path d="M17.5328 1.8775C17.2188 1.8775 16.9095 1.89787 16.606 1.93711C20.1321 2.39286 22.8651 5.41224 22.8651 9.05757C22.8651 11.5066 21.7024 14.136 19.4091 16.8726C18.326 18.1651 17.253 19.1604 16.606 19.721C16.9652 20.0322 17.1936 20.2101 17.2185 20.2294C17.3111 20.3009 17.422 20.3367 17.5329 20.3367C17.6438 20.3367 17.7547 20.3009 17.8473 20.2294C17.9172 20.1753 19.5786 18.8825 21.2629 16.8726C23.5562 14.136 24.7189 11.5067 24.7189 9.05757C24.7188 5.09847 21.4952 1.8775 17.5328 1.8775Z" fill="#E7343F"/>
<path d="M17.7104 33.0774L20.8061 31.6886L17.5 28.2671V33.1224C17.5 33.1224 17.5 33.1224 17.5001 33.1224C17.5715 33.1224 17.6432 33.1076 17.7104 33.0774Z" fill="#FFDB56"/>
<path d="M32.2421 17.3684C32.2147 17.2172 32.1209 17.0862 31.9865 17.0115L31.4417 16.7084L25.1644 18.1082L34.3011 28.7122L32.2421 17.3684Z" fill="#1EA4E9"/>
<path d="M17.5 33.1224C17.5001 33.1224 17.5001 33.1224 17.5 33.1224V32.6092L9.63717 20.6682L8.96472 29.3427L17.2896 33.0775C17.3568 33.1076 17.4285 33.1224 17.5 33.1224Z" fill="#1EA4E9"/>
</g>
<defs>
<clipPath id="clip0">
<rect width="35" height="35" fill="white"/>
</clipPath>
</defs>
</svg>
