<svg width="20" height="20" viewBox="0 0 20 20" fill="none" xmlns="http://www.w3.org/2000/svg">
<path d="M2.5 5H4.16667H17.5" stroke="#E72323" stroke-width="2" stroke-linecap="round" stroke-linejoin="round"/>
<path d="M16.8334 5C16.8334 4.44772 16.3857 4 15.8334 4C15.2811 4 14.8334 4.44772 14.8334 5H16.8334ZM5.16675 5C5.16675 4.44772 4.71903 4 4.16675 4C3.61446 4 3.16675 4.44772 3.16675 5H5.16675ZM5.66667 5.00002C5.66667 5.5523 6.11438 6.00002 6.66667 6.00002C7.21895 6.00002 7.66667 5.5523 7.66667 5.00002H5.66667ZM12.3333 5.00002C12.3333 5.5523 12.781 6.00002 13.3333 6.00002C13.8856 6.00002 14.3333 5.5523 14.3333 5.00002H12.3333ZM14.8334 5V16.6667H16.8334V5H14.8334ZM14.8334 16.6667C14.8334 17.0349 14.5349 17.3333 14.1667 17.3333V19.3333C15.6395 19.3333 16.8334 18.1394 16.8334 16.6667H14.8334ZM14.1667 17.3333H5.83341V19.3333H14.1667V17.3333ZM5.83341 17.3333C5.46522 17.3333 5.16675 17.0349 5.16675 16.6667H3.16675C3.16675 18.1394 4.36066 19.3333 5.83341 19.3333V17.3333ZM5.16675 16.6667V5H3.16675V16.6667H5.16675ZM7.66667 5.00002V3.33335H5.66667V5.00002H7.66667ZM7.66667 3.33335C7.66667 2.96516 7.96514 2.66669 8.33333 2.66669V0.666687C6.86057 0.666687 5.66667 1.86059 5.66667 3.33335H7.66667ZM8.33333 2.66669H11.6667V0.666687H8.33333V2.66669ZM11.6667 2.66669C12.0349 2.66669 12.3333 2.96516 12.3333 3.33335H14.3333C14.3333 1.86059 13.1394 0.666687 11.6667 0.666687V2.66669ZM12.3333 3.33335V5.00002H14.3333V3.33335H12.3333Z" fill="#E72323"/>
</svg>
